<svg id="Ebene_1" data-name="Ebene 1" xmlns="http://www.w3.org/2000/svg" preserveAspectRatio="none" viewBox="0 0 7965 4728.3">
  <defs>
    <style>
      .cls-1, .cls-2, .cls-20, .cls-21, .cls-25, .cls-26, .cls-3, .cls-33, .cls-4, .cls-5, .cls-6, .cls-7 {
        fill: none;
      }

      .cls-1 {
        stroke: #868686;
      }

      .cls-1, .cls-2, .cls-20, .cls-21, .cls-25, .cls-26, .cls-3, .cls-33, .cls-4, .cls-5, .cls-52, .cls-6, .cls-7 {
        stroke-miterlimit: 10;
      }

      .cls-1, .cls-3 {
        stroke-width: 60px;
      }

      .cls-2, .cls-26, .cls-7 {
        stroke: #31b7ee;
      }

      .cls-2 {
        stroke-width: 130px;
      }

      .cls-20, .cls-21, .cls-25, .cls-3, .cls-33, .cls-5, .cls-52, .cls-6 {
        stroke: #040405;
      }

      .cls-4 {
        stroke: #fcdf00;
        stroke-width: 90px;
      }

      .cls-5 {
        stroke-width: 6px;
      }

      .cls-6 {
        stroke-width: 45px;
      }

      .cls-7 {
        stroke-width: 3px;
      }

      .cls-8 {
        fill: #31b7ee;
      }

      .cls-9 {
        font-size: 20.16px;
      }

      .cls-11, .cls-14, .cls-18, .cls-22, .cls-27, .cls-31, .cls-42, .cls-47, .cls-51, .cls-53, .cls-56, .cls-9 {
        fill: #161615;
      }

      .cls-11, .cls-14, .cls-18, .cls-22, .cls-27, .cls-31, .cls-34, .cls-42, .cls-47, .cls-53, .cls-55, .cls-56, .cls-57, .cls-58, .cls-9 {
        font-family: Johnston100-Light, Johnston100 Light;
        font-weight: 300;
      }

      .cls-10 {
        letter-spacing: 0em;
      }

      .cls-11 {
        font-size: 49.55px;
      }

      .cls-12 {
        letter-spacing: -0.06em;
      }

      .cls-13 {
        letter-spacing: -0.01em;
      }

      .cls-14 {
        font-size: 47.57px;
      }

      .cls-15 {
        letter-spacing: -0.01em;
      }

      .cls-16 {
        letter-spacing: 0em;
      }

      .cls-17 {
        letter-spacing: -0.01em;
      }

      .cls-18 {
        font-size: 41.85px;
      }

      .cls-19 {
        letter-spacing: 0em;
      }

      .cls-20 {
        stroke-width: 23px;
      }

      .cls-21 {
        stroke-width: 165px;
      }

      .cls-22 {
        font-size: 146.75px;
      }

      .cls-23 {
        letter-spacing: -0.06em;
      }

      .cls-24 {
        letter-spacing: -0.01em;
      }

      .cls-25 {
        stroke-width: 40px;
      }

      .cls-26 {
        stroke-width: 20px;
      }

      .cls-27 {
        font-size: 120.13px;
      }

      .cls-28 {
        letter-spacing: 0em;
      }

      .cls-29 {
        letter-spacing: 0em;
      }

      .cls-30 {
        letter-spacing: -0.01em;
      }

      .cls-31 {
        font-size: 138.17px;
      }

      .cls-32 {
        letter-spacing: 0em;
      }

      .cls-33 {
        stroke-width: 101px;
      }

      .cls-34 {
        font-size: 79.42px;
      }

      .cls-34, .cls-55, .cls-57, .cls-58 {
        fill: #fff;
      }

      .cls-35 {
        letter-spacing: -0.01em;
      }

      .cls-36 {
        letter-spacing: 0em;
      }

      .cls-37 {
        letter-spacing: 0.01em;
      }

      .cls-38 {
        letter-spacing: 0em;
      }

      .cls-39 {
        letter-spacing: 0em;
      }

      .cls-40 {
        letter-spacing: 0em;
      }

      .cls-41 {
        letter-spacing: -0.05em;
      }

      .cls-42 {
        font-size: 280px;
      }

      .cls-43, .cls-47 {
        font-size: 340px;
      }

      .cls-44 {
        letter-spacing: 0em;
      }

      .cls-45 {
        letter-spacing: -0.04em;
      }

      .cls-46 {
        letter-spacing: -0.07em;
      }

      .cls-48 {
        letter-spacing: -0.02em;
      }

      .cls-49 {
        letter-spacing: 0em;
      }

      .cls-50 {
        letter-spacing: 0em;
      }

      .cls-52 {
        fill: #fcdf00;
        stroke-width: 7px;
      }

      .cls-53 {
        font-size: 317.97px;
      }

      .cls-54 {
        fill: #ea7788;
      }

      .cls-55 {
        font-size: 205.9px;
      }

      .cls-56 {
        font-size: 171px;
      }

      .cls-57 {
        font-size: 84px;
      }

      .cls-58 {
        font-size: 29px;
      }
    </style>
  </defs>
  <title>bbf96690-9e36-47a3-bd37-2cb1c2f9772f</title>
  <path class="cls-1" d="M471.8,3213.2"/>
  <path class="cls-1" d="M974.2,2275.2"/>
  <path class="cls-1" d="M2125.1,190.9"/>
  <path class="cls-2" d="M3365.8,84"/>
  <path class="cls-2" d="M843,4580.5A2537.4,2537.4,0,0,1,1270,3967.3c207.1-219.5,451.9-400.5,661.4-617.8s387.6-484.9,413.2-785.6c22.5-265.1-74-542.4,16.6-792.6,50.1-138.2,116-250.9,170.4-390.8,71.9-185,723.7-958.6,773.6-1210.8"/>
  <path class="cls-2" d="M457.1,4558.4c41.9-242.6,171-463.9,336.2-646.4s365.7-329.3,571-465.1c158.5-104.8,322.8-205.5,451.6-345.2,212.3-230.1,310.1-557.4,273-868.3-14-117.2-46-234.4-32.1-351.7,10.9-91.9,68.4-170,97.4-257.8,199.7-603.7,378.6-837,614.2-991.7,204.1-134,307.3-382.1,403.3-606.6"/>
  <path class="cls-1" d="M5169.3,1512.4q-234.4,244.3-477.7,479.8c-37.5,36.3-76,73-123.3,94.9-115.2,53.2-251.4,6.7-376.7,26.4-121.2,19-225.7,100.1-299.2,198.4-71.4,95.5-117.7,206.9-162.5,317.5a44.7,44.7,0,0,0-2.1,27.6c14.4,57.4,112.6-61.6,140.4-112.5,12.7-23.2,25.2-42.3,23.2-74.6-2.3-37.9-33.3-80.6-17.6-130.1"/>
  <path class="cls-1" d="M6284,240.8C6005.4,593,5754,882,5450.3,1212.9"/>
  <path class="cls-3" d="M551.8,1685.6c196.9,104.2,766.1,412.7,953.9,532.1,67.8,43.1,136.8,89,180.9,155.6,112.5,170,10.7,406.6-159,525.2-48.1,33.6-28.2,109.7,30.3,114h2.1c45.3,2,86-26.1,119.9-55.9,92.4-81.4,163.4-186.3,204.1-301.7,27.8-78.8,44.3-166.7,104.8-225,42.2-40.7,100-60.7,155.7-79.6,241.7-81.7,517.4-160.9,742.6-41.6,179.6,95.1,280.2,311.1,248.2,509.7-7.5,46.5-21.4,94.1-9.5,139.7,30.7,117.8,189.6,131.3,309.6,159.4,260.8,61,445.2,291,689.6,399.5,128.8,57.2,270.4,78.8,409.9,100.9,1123.7,177.8,2326.9,440.3,3422,745.6"/>
  <path class="cls-3" d="M912.6,1875.9"/>
  <path class="cls-3" d="M225.5,1549.1"/>
  <path class="cls-3" d="M4907.8,1455.7c-78.8,137.3-153.9,277-228.6,416.2-51.4,95.7-102.9,191.7-140.9,293.2-24.7,65.9-43.8,134.3-78.6,195.6-33.3,58.5-79.8,108.6-125.9,158-208.4,223.6-418.6,448.8-668,627.2-69.7,49.9-144,97.6-192.5,167.7-63.8,92.3-73.6,209.4-81.4,320.7l-66.4,941"/>
  <path class="cls-3" d="M5792.9,240.3c-64.1,188.4-206.6,281.6-340.1,429.1q-89.7,99-170.1,205.2"/>
  <path class="cls-4" d="M836.6,208.9C777.1,551.2,724.6,832,656.9,1173,559.2,1664.7,337.2,2358.4,36.6,2778.9"/>
  <path class="cls-1" d="M5450.3,1212.9q-138.8,151.3-281,299.5"/>
  <path class="cls-5" d="M5205.2,1206.2a110.5,110.5,0,0,1,14.9,11.1c-21.7,27.2-43.3,54.5-67,79.8-12.8,13.7-13.5,14.1-26.9,31"/>
  <path class="cls-6" d="M5011.7,1278.8A1339.7,1339.7,0,0,1,5159,1380c44.9-31.5,78.9-75.9,111.8-119.8,55.8-74.6,111-150.3,175.2-217.6"/>
  <path class="cls-3" d="M5282.6,874.6c-139.5,183-261.1,379.6-374.8,581.1"/>
  <path class="cls-7" d="M5205.2,1206.2a110.5,110.5,0,0,1,14.9,11.1c-21.7,27.2-43.3,54.5-67,79.8-12.8,13.7-13.5,14.1-26.9,31"/>
  <rect class="cls-8" x="5142.9" y="1115.6" width="66.7" height="150.92" transform="translate(1617.7 -2752.2) rotate(35)"/>
  <path class="cls-7" d="M5204.9,1205.7l15.2,11.6"/>
  <path class="cls-6" d="M4777.8,1165.1c69,36.4,139,70.8,213.3,93.9,5.6,1.7,11.5,3.6,15.4,8"/>
  <text class="cls-9" transform="translate(5114.7 1204) rotate(-55.8)">Supe<tspan class="cls-10" x="42.6" y="0">r</tspan><tspan x="49.3" y="0">ma</tspan><tspan class="cls-10" x="75.8" y="0">r</tspan><tspan x="82.5" y="0">kt</tspan></text>
  <text class="cls-11" transform="matrix(1, 0.01, -0.01, 1, 4839.62, 1118.9)"><tspan class="cls-12">T</tspan><tspan x="21.5" y="0">anks</tspan><tspan class="cls-13" x="115.7" y="0">t</tspan><tspan x="131.8" y="0">elle</tspan></text>
  <text class="cls-14" transform="matrix(1, 0.01, -0.01, 1, 4970.13, 954.86)"><tspan class="cls-15">A</tspan><tspan class="cls-16" x="28.5" y="0">u</tspan><tspan class="cls-17" x="54.8" y="0">t</tspan><tspan x="70.2" y="0">ohaus</tspan></text>
  <text class="cls-18" transform="matrix(1, 0.01, -0.01, 1, 5237.65, 1033.75)"><tspan class="cls-19">A</tspan><tspan x="25.5" y="0">potheke</tspan></text>
  <path class="cls-20" d="M4776.5,1164.9c11.1-184.3,164.6-329.8,351.4-328.7,193.3,1.1,349.1,158.8,347.9,352.1s-158.8,349.1-352.1,347.9-349.1-158.8-347.9-352.1q.1-9.7.6-19.2"/>
  <path class="cls-21" d="M5249.3,2439.1c193,101.8,389.1,198.2,596.9,262.9,15.6,4.9,32.2,10.1,43.1,22.4"/>
  <text class="cls-22" transform="matrix(1, 0.01, -0.01, 1, 5402.88, 2309.47)"><tspan class="cls-23">T</tspan><tspan x="63.5" y="0">anks</tspan><tspan class="cls-24" x="342.7" y="0">t</tspan><tspan x="390.4" y="0">elle</tspan></text>
  <path class="cls-1" d="M7202.8,2484.8Q6751.9,2986.6,6290,3478"/>
  <path class="cls-21" d="M6662,1626.1c-390.5,512-730.7,1062.2-1049,1626.2"/>
  <path class="cls-21" d="M5937.7,2782.9A3749.2,3749.2,0,0,1,6349.9,3066c125.8-88.1,220.8-212.4,312.8-335.3,156.1-208.7,299.8-411.5,479.3-599.6"/>
  <path class="cls-25" d="M6475.6,2570.5a339.2,339.2,0,0,1,45.8,33.8c-66.5,83-132.9,166.2-205.8,243.7-39.3,41.8-41.6,43-82.7,94.7"/>
  <path class="cls-26" d="M6480.8,2574.6a300.3,300.3,0,0,1,40.5,29.7c-58.9,73-117.7,146.2-182.2,214.4-34.8,36.8-36.8,37.9-73.3,83.3"/>
  <rect class="cls-8" x="6317.8" y="2327.1" width="186.7" height="422.37" transform="translate(3062.9 -3489.6) rotate(39.4)"/>
  <text class="cls-27" transform="translate(6139.2 2698.3) rotate(-55.5)">Supe<tspan class="cls-28" x="254" y="0">r</tspan><tspan x="293.7" y="0">ma</tspan><tspan class="cls-29" x="451.8" y="0">r</tspan><tspan x="491.6" y="0">kt</tspan></text>
  <text class="cls-22" transform="matrix(1, 0.01, -0.01, 1, 5749.38, 1842.28)"><tspan class="cls-30">A</tspan><tspan x="88.1" y="0">u</tspan><tspan class="cls-24" x="168.9" y="0">t</tspan><tspan x="216.6" y="0">ohaus</tspan></text>
  <text class="cls-31" transform="matrix(1, 0.02, -0.02, 1, 6453.41, 2124.86)"><tspan class="cls-32">A</tspan><tspan x="84.1" y="0">potheke</tspan></text>
  <path class="cls-33" d="M5245.7,2438.5c31-515.7,460.6-922.9,983.5-919.8,540.9,3.2,976.9,444.3,973.7,985.3s-444.3,976.9-985.3,973.7-976.9-444.3-973.7-985.3q.2-27.1,1.8-53.9"/>
  <text class="cls-34" transform="translate(5901.9 2961.2) rotate(36.1)"><tspan class="cls-35">L</tspan><tspan class="cls-36" x="36.4" y="0">ena</tspan><tspan class="cls-37" x="158.5" y="0">-</tspan><tspan x="184" y="0">Ch</tspan><tspan class="cls-38" x="274.2" y="0">r</tspan><tspan x="300.5" y="0">is</tspan><tspan class="cls-39" x="350.5" y="0">t</tspan><tspan class="cls-36" x="376.4" y="0">-</tspan><tspan class="cls-40" x="400.8" y="0">S</tspan><tspan class="cls-36" x="439.7" y="0">t</tspan><tspan class="cls-41" x="466" y="0">r</tspan><tspan x="487.7" y="0">.</tspan></text>
  <text class="cls-42" transform="matrix(1, 0.01, -0.01, 1, 3300.89, 862.89)">nach<tspan class="cls-43"><tspan class="cls-44" x="0" y="320">M</tspan><tspan x="274.4" y="320">ünchen</tspan></tspan></text>
  <text class="cls-42" transform="matrix(1, 0.01, -0.01, 1, 1989.53, 4074.49)">nach<tspan class="cls-43"><tspan x="0" y="320">Bad</tspan><tspan class="cls-45" x="539.9" y="320"> </tspan><tspan class="cls-46" x="598.1" y="320">T</tspan><tspan x="742.9" y="320">ölz</tspan></tspan></text>
  <text class="cls-47" transform="matrix(1, 0.01, -0.01, 1, 847.73, 1288.45)"><tspan class="cls-48">P</tspan><tspan x="175.8" y="0">ullach</tspan></text>
  <text class="cls-42" transform="matrix(1, 0.01, -0.01, 1, 5263.51, 4093.42)">nach<tspan class="cls-43"><tspan x="0" y="320">Obe</tspan><tspan class="cls-49" x="598.1" y="320">r</tspan><tspan class="cls-50" x="710.6" y="320">haching</tspan></tspan></text>
  <rect class="cls-51" x="5363" y="1469.5" width="55.1" height="435.32" transform="translate(-128.6 2888.7) rotate(-29.7)"/>
  <g>
    <rect class="cls-52" x="459.6" y="701.4" width="554.1" height="290" rx="72.2" transform="translate(5 -4.3) rotate(0.3)"/>
    <text class="cls-53" transform="matrix(1, 0.01, -0.01, 1, 657.93, 960.17)">11</text>
  </g>
  <g>
    <rect class="cls-54" x="3775.8" y="1971.3" width="396.6" height="217.91" transform="translate(12.4 -23.5) rotate(0.3)"/>
    <text class="cls-55" transform="matrix(1, 0.01, -0.01, 1, 3862.3, 2154.8)">25</text>
  </g>
  <text class="cls-56" transform="translate(2558.2 2191.4) rotate(0.2)">E</text>
  <text class="cls-56" transform="translate(2639.3 2189.6) rotate(6.9)">m</text>
  <text class="cls-56" transform="matrix(0.97, 0.24, -0.24, 0.97, 2777.06, 2208.97)">i</text>
  <text class="cls-56" transform="translate(2814 2217.9) rotate(18)">l</text>
  <text class="cls-56" transform="matrix(0.92, 0.39, -0.39, 0.92, 2850.16, 2229.4)">-</text>
  <text class="cls-56" transform="matrix(0.86, 0.51, -0.51, 0.86, 2898.2, 2247.42)">G</text>
  <text class="cls-56" transform="translate(2989.9 2302.4) rotate(39.8)">e</text>
  <text class="cls-56" transform="translate(3052.7 2356.1) rotate(45.8)">i</text>
  <text class="cls-56" transform="matrix(0.63, 0.78, -0.78, 0.63, 3079.38, 2382.38)">s</text>
  <text class="cls-56" transform="matrix(0.54, 0.84, -0.84, 0.54, 3119.77, 2432.85)">-</text>
  <text class="cls-56" transform="translate(3147.3 2473.6) rotate(64.5)">S</text>
  <text class="cls-56" transform="translate(3181.2 2546) rotate(72.2)">t</text>
  <text class="cls-56" transform="matrix(0.2, 0.98, -0.98, 0.2, 3197.76, 2596.95)">r</text>
  <text class="cls-56" transform="translate(3206.8 2641) rotate(82.3)">.</text>
  <text class="cls-56" transform="translate(3542.6 4034.6) rotate(-86)">T<tspan x="72.9" y="0">ö</tspan></text>
  <text class="cls-56" transform="translate(3554.4 3868.3) rotate(-86)">l</text>
  <text class="cls-56" transform="translate(3557.2 3828) rotate(-86)">z</text>
  <text class="cls-56" transform="matrix(0.07, -1, 1, 0.07, 3562.28, 3756.18)">e<tspan x="85.7" y="0">r</tspan></text>
  <text class="cls-56" transform="translate(3572.1 3615.9) rotate(-85.7)"> </text>
  <text class="cls-56" transform="translate(3574 3581.6) rotate(-83.7)">S</text>
  <text class="cls-56" transform="translate(3582.6 3502.6) rotate(-78.6)">t</text>
  <text class="cls-56" transform="matrix(0.32, -0.95, 0.95, 0.32, 3591.85, 3452.88)">r</text>
  <text class="cls-56" transform="matrix(0.43, -0.9, 0.9, 0.43, 3604.79, 3413.59)">.</text>
  <path class="cls-3" d="M3046.6,4728.3"/>
  <text class="cls-56" transform="translate(3869.6 3198.1) rotate(-39.2)">S</text>
  <text class="cls-56" transform="matrix(0.76, -0.66, 0.66, 0.76, 3937.38, 3142.75)">ü</text>
  <text class="cls-56" transform="translate(4010.8 3079) rotate(-42.5)">d</text>
  <text class="cls-56" transform="matrix(0.73, -0.69, 0.69, 0.73, 4083.02, 3012.41)">l</text>
  <text class="cls-56" transform="translate(4113 2984) rotate(-44)">i</text>
  <text class="cls-56" transform="translate(4142.7 2955.3) rotate(-44.7)">c</text>
  <text class="cls-56" transform="translate(4198.3 2900.3) rotate(-45.6)">h</text>
  <text class="cls-56" transform="translate(4265.6 2831.6) rotate(-46.3)">e</text>
  <text class="cls-56" transform="matrix(0.69, -0.73, 0.73, 0.69, 4325.15, 2769.21)"> </text>
  <text class="cls-56" transform="translate(4350.5 2742.5) rotate(-46.9)">M</text>
  <text class="cls-56" transform="matrix(0.68, -0.74, 0.74, 0.68, 4445.82, 2641.11)">ü</text>
  <text class="cls-56" transform="matrix(0.61, -0.79, 0.79, 0.61, 4516.02, 2565.82)">n</text>
  <text class="cls-56" transform="translate(4582.6 2478.6) rotate(-60.2)">c</text>
  <text class="cls-56" transform="translate(4626.4 2399.4) rotate(-67.7)">h</text>
  <text class="cls-56" transform="translate(4662.2 2306.8) rotate(-70.1)">n</text>
  <text class="cls-56" transform="translate(4693.1 2219.8) rotate(-67.1)">e</text>
  <text class="cls-56" transform="matrix(0.43, -0.9, 0.9, 0.43, 4726.04, 2143.08)">r</text>
  <text class="cls-56" transform="translate(4749.8 2093.6) rotate(-63.4)"> </text>
  <text class="cls-56" transform="translate(4765.2 2062.5) rotate(-62.3)">S</text>
  <text class="cls-56" transform="translate(4803.6 1989.7) rotate(-61.8)">t</text>
  <text class="cls-56" transform="translate(4830.2 1940) rotate(-61.8)">r</text>
  <text class="cls-56" transform="translate(4852.4 1898.8) rotate(-61.7)">.</text>
  <text class="cls-56" transform="translate(4958.9 3608.8) rotate(10)">O</text>
  <text class="cls-56" transform="translate(5074.8 3629.3) rotate(10.3)">b</text>
  <text class="cls-56" transform="translate(5170.5 3646.6) rotate(10.4)">e</text>
  <text class="cls-56" transform="translate(5254.7 3662.1) rotate(10.6)">r</text>
  <text class="cls-56" transform="matrix(0.98, 0.19, -0.19, 0.98, 5310.23, 3672.49)">h</text>
  <text class="cls-56" transform="translate(5403.4 3690.1) rotate(10.9)">a</text>
  <text class="cls-56" transform="matrix(0.98, 0.19, -0.19, 0.98, 5484.25, 3705.68)">c</text>
  <text class="cls-56" transform="translate(5559.4 3720.3) rotate(11.2)">h</text>
  <text class="cls-56" transform="translate(5652.4 3738.8) rotate(11.3)">i</text>
  <text class="cls-56" transform="translate(5691.6 3746.6) rotate(11.5)">n</text>
  <text class="cls-56" transform="matrix(0.98, 0.2, -0.2, 0.98, 5784.48, 3765.44)">g</text>
  <text class="cls-56" transform="matrix(0.98, 0.2, -0.2, 0.98, 5878.01, 3784.73)">e</text>
  <text class="cls-56" transform="translate(5961.8 3802.3) rotate(12)">r</text>
  <text class="cls-56" transform="matrix(0.98, 0.21, -0.21, 0.98, 6016.44, 3813.87)"> </text>
  <text class="cls-56" transform="matrix(0.98, 0.21, -0.21, 0.98, 6051.84, 3821.4)">S</text>
  <text class="cls-56" transform="translate(6133.7 3839.1) rotate(12.3)">t</text>
  <text class="cls-56" transform="translate(6188.9 3851.1) rotate(12.4)">r</text>
  <text class="cls-56" transform="matrix(0.98, 0.22, -0.22, 0.98, 6234.66, 3861.16)">.</text>
  <text class="cls-57" transform="translate(5388.5 2542.5) rotate(26.2)">R</text>
  <text class="cls-57" transform="translate(5429.6 2562.8) rotate(25.7)">e</text>
  <text class="cls-57" transform="translate(5467.7 2581.1) rotate(25.3)">i</text>
  <text class="cls-57" transform="translate(5485.6 2589.5) rotate(24.9)">t</text>
  <text class="cls-57" transform="translate(5511 2601.4) rotate(24.4)">z</text>
  <text class="cls-57" transform="matrix(0.92, 0.4, -0.4, 0.92, 5543.54, 2616.14)">e</text>
  <text class="cls-57" transform="translate(5582.4 2633.3) rotate(23)">n</text>
  <text class="cls-57" transform="matrix(0.93, 0.38, -0.38, 0.93, 5625.69, 2651.61)">s</text>
  <text class="cls-57" transform="translate(5656.8 2664.3) rotate(21.6)">t</text>
  <text class="cls-57" transform="translate(5682.9 2674.6) rotate(21)">r</text>
  <text class="cls-57" transform="translate(5704.6 2682.9) rotate(20.6)">.</text>
  <text class="cls-57" transform="translate(5937 2815.4) rotate(31.1) scale(0.91 1)">L</text>
  <text class="cls-57" transform="matrix(0.78, 0.48, -0.52, 0.85, 5966.81, 2833.43)">e</text>
  <text class="cls-57" transform="matrix(0.77, 0.48, -0.53, 0.85, 5999.22, 2853.36)">n</text>
  <text class="cls-57" transform="matrix(0.77, 0.49, -0.54, 0.84, 6034.93, 2875.82)">a</text>
  <text class="cls-57" transform="matrix(0.76, 0.5, -0.55, 0.84, 6065.79, 2895.64)">-</text>
  <text class="cls-57" transform="matrix(0.76, 0.5, -0.55, 0.83, 6086.19, 2908.89)">C</text>
  <text class="cls-57" transform="matrix(0.75, 0.51, -0.56, 0.83, 6122.92, 2933.26)">h</text>
  <text class="cls-57" transform="translate(6157.9 2957) rotate(34.6) scale(0.91 1)">r</text>
  <text class="cls-57" transform="translate(6178.6 2971.3) rotate(34.9) scale(0.91 1)">i</text>
  <text class="cls-57" transform="matrix(0.74, 0.53, -0.58, 0.82, 6193.13, 2981.43)">s</text>
  <text class="cls-57" transform="matrix(0.74, 0.53, -0.58, 0.81, 6217.74, 2998.8)">t</text>
  <text class="cls-57" transform="matrix(0.74, 0.53, -0.59, 0.81, 6237.89, 3013.23)">-</text>
  <text class="cls-57" transform="matrix(0.73, 0.54, -0.59, 0.81, 6256.76, 3026.86)">S</text>
  <text class="cls-57" transform="translate(6286.8 3049) rotate(36.7) scale(0.91 1)">t</text>
  <text class="cls-57" transform="translate(6306.9 3064) rotate(37.1) scale(0.91 1)">r</text>
  <text class="cls-57" transform="translate(6323.6 3076.6) rotate(37.3) scale(0.91 1)">.</text>
  <text class="cls-57" transform="translate(6528.5 2943.4) rotate(-48.5)">L</text>
  <text class="cls-57" transform="matrix(0.64, -0.77, 0.77, 0.64, 6554.44, 2914.11)">u</text>
  <text class="cls-57" transform="matrix(0.63, -0.78, 0.78, 0.63, 6584.6, 2878.15)">d</text>
  <text class="cls-57" transform="translate(6614.6 2840.8) rotate(-52.4)">w</text>
  <text class="cls-57" transform="translate(6652.4 2791.5) rotate(-52.9)">i</text>
  <text class="cls-57" transform="translate(6664.3 2775.8) rotate(-53.2)">g</text>
  <text class="cls-57" transform="translate(6692.5 2738.1) rotate(-53.3)">-</text>
  <text class="cls-57" transform="translate(6708.6 2716.5) rotate(-53.4)">G</text>
  <text class="cls-57" transform="matrix(0.6, -0.8, 0.8, 0.6, 6741.41, 2672.37)">a</text>
  <text class="cls-57" transform="translate(6765.5 2639.9) rotate(-53.4)">n</text>
  <text class="cls-57" transform="translate(6793.3 2602.5) rotate(-53.3)">g</text>
  <text class="cls-57" transform="translate(6821.3 2564.9) rotate(-53.1)">h</text>
  <text class="cls-57" transform="matrix(0.6, -0.8, 0.8, 0.6, 6849.25, 2527.75)">o</text>
  <text class="cls-57" transform="matrix(0.61, -0.79, 0.79, 0.61, 6877.05, 2491.1)">f</text>
  <text class="cls-57" transform="matrix(0.61, -0.79, 0.79, 0.61, 6891.19, 2472.56)">e</text>
  <text class="cls-57" transform="translate(6916.8 2439.4) rotate(-52)">r</text>
  <text class="cls-57" transform="translate(6933.4 2418.2) rotate(-51.8)">-</text>
  <text class="cls-57" transform="matrix(0.62, -0.78, 0.78, 0.62, 6949.19, 2398.05)">S</text>
  <text class="cls-57" transform="matrix(0.63, -0.78, 0.78, 0.63, 6974.77, 2366.05)">t</text>
  <text class="cls-57" transform="translate(6992.2 2344.6) rotate(-50.6)">r</text>
  <text class="cls-57" transform="translate(7006.7 2326.9) rotate(-50.3)">.</text>
  <text class="cls-57" transform="matrix(0.52, -0.86, 0.86, 0.52, 5921.28, 2778.73)">S</text>
  <text class="cls-57" transform="translate(5942.6 2743.3) rotate(-58.7)">ü</text>
  <text class="cls-57" transform="matrix(0.52, -0.85, 0.85, 0.52, 5966.62, 2703.83)">d</text>
  <text class="cls-57" transform="translate(5991.3 2663.5) rotate(-58.4)">l</text>
  <text class="cls-57" transform="translate(6001.7 2646.6) rotate(-58.4)">i</text>
  <text class="cls-57" transform="translate(6011.9 2629.9) rotate(-58.3)">c</text>
  <text class="cls-57" transform="matrix(0.53, -0.85, 0.85, 0.53, 6031.67, 2597.97)">h</text>
  <text class="cls-57" transform="translate(6056.3 2558.5) rotate(-57.9)">e</text>
  <text class="cls-57" transform="translate(6078.6 2522.8) rotate(-57.8)"> </text>
  <text class="cls-57" transform="matrix(0.53, -0.84, 0.84, 0.53, 6087.98, 2507.81)">M</text>
  <text class="cls-57" transform="translate(6124.2 2450.7) rotate(-57.4)">ü</text>
  <text class="cls-57" transform="translate(6149.1 2411.7) rotate(-57.2)">n</text>
  <text class="cls-57" transform="translate(6174.2 2372.6) rotate(-57.1)">c</text>
  <text class="cls-57" transform="translate(6194.7 2341.1) rotate(-56.9)">h</text>
  <text class="cls-57" transform="translate(6220.1 2302.1) rotate(-56.7)">n</text>
  <text class="cls-57" transform="matrix(0.55, -0.83, 0.83, 0.55, 6245.62, 2263.26)">e</text>
  <text class="cls-57" transform="translate(6268.8 2228.2) rotate(-56.3)">r</text>
  <text class="cls-57" transform="translate(6284 2205.4) rotate(-56.2)"> </text>
  <text class="cls-57" transform="translate(6293.9 2190.7) rotate(-56.1)">S</text>
  <text class="cls-57" transform="translate(6316.8 2156.6) rotate(-55.9)">t</text>
  <text class="cls-57" transform="translate(6332.4 2133.6) rotate(-55.8)">r</text>
  <text class="cls-57" transform="translate(6345.3 2114.6) rotate(-55.7)">.</text>
  <text class="cls-58" transform="matrix(0.9, 0.44, -0.44, 0.9, 4831.32, 1199.09)">R</text>
  <text class="cls-58" transform="translate(4845.5 1206.1) rotate(25.7)">e</text>
  <text class="cls-58" transform="translate(4858.7 1212.4) rotate(25.3)">i</text>
  <text class="cls-58" transform="translate(4864.8 1215.3) rotate(24.9)">t</text>
  <text class="cls-58" transform="translate(4873.6 1219.4) rotate(24.4)">z</text>
  <text class="cls-58" transform="matrix(0.92, 0.4, -0.4, 0.92, 4884.84, 1224.5)">e</text>
  <text class="cls-58" transform="translate(4898.2 1230.4) rotate(23)">n</text>
  <text class="cls-58" transform="matrix(0.93, 0.38, -0.38, 0.93, 4913.2, 1236.75)">s</text>
  <text class="cls-58" transform="translate(4923.9 1241.1) rotate(21.6)">t</text>
  <text class="cls-58" transform="matrix(0.93, 0.36, -0.36, 0.93, 4932.97, 1244.69)">r</text>
  <text class="cls-58" transform="matrix(0.94, 0.35, -0.35, 0.94, 4940.45, 1247.55)">.</text>
  <text class="cls-58" transform="translate(5019.8 1292.9) rotate(31.1) scale(0.91 1)">L</text>
  <text class="cls-58" transform="translate(5030.1 1299.1) rotate(31.6) scale(0.91 1)">e</text>
  <text class="cls-58" transform="matrix(0.77, 0.48, -0.53, 0.85, 5041.31, 1305.97)">n</text>
  <text class="cls-58" transform="matrix(0.77, 0.49, -0.54, 0.84, 5053.65, 1313.73)">a</text>
  <text class="cls-58" transform="translate(5064.3 1320.6) rotate(33.1) scale(0.91 1)">-</text>
  <text class="cls-58" transform="matrix(0.76, 0.5, -0.55, 0.83, 5071.33, 1325.15)">C</text>
  <text class="cls-58" transform="matrix(0.75, 0.51, -0.56, 0.83, 5084, 1333.56)">h</text>
  <text class="cls-58" transform="translate(5096.1 1341.8) rotate(34.6) scale(0.91 1)">r</text>
  <text class="cls-58" transform="matrix(0.75, 0.52, -0.57, 0.82, 5103.21, 1346.7)">i</text>
  <text class="cls-58" transform="translate(5108.2 1350.2) rotate(35.2) scale(0.91 1)">s</text>
  <text class="cls-58" transform="translate(5116.7 1356.2) rotate(35.6) scale(0.91 1)">t</text>
  <text class="cls-58" transform="matrix(0.74, 0.53, -0.59, 0.81, 5123.69, 1361.19)">-</text>
  <text class="cls-58" transform="matrix(0.73, 0.54, -0.59, 0.81, 5130.2, 1365.9)">S</text>
  <text class="cls-58" transform="translate(5140.6 1373.5) rotate(36.8) scale(0.91 1)">t</text>
  <text class="cls-58" transform="translate(5147.5 1378.7) rotate(37.1) scale(0.91 1)">r</text>
  <text class="cls-58" transform="matrix(0.72, 0.55, -0.61, 0.8, 5153.25, 1383.07)">.</text>
  <text class="cls-58" transform="translate(5222.2 1337.4) rotate(-48.4)">L</text>
  <text class="cls-58" transform="matrix(0.64, -0.77, 0.77, 0.64, 5231.18, 1327.33)">u</text>
  <text class="cls-58" transform="translate(5241.6 1314.9) rotate(-51.3)">d</text>
  <text class="cls-58" transform="matrix(0.61, -0.79, 0.79, 0.61, 5251.98, 1302.02)">w</text>
  <text class="cls-58" transform="translate(5265 1285) rotate(-52.9)">i</text>
  <text class="cls-58" transform="translate(5269.2 1279.6) rotate(-53.2)">g</text>
  <text class="cls-58" transform="translate(5278.9 1266.6) rotate(-53.3)">-</text>
  <text class="cls-58" transform="translate(5284.5 1259.1) rotate(-53.4)">G</text>
  <text class="cls-58" transform="matrix(0.6, -0.8, 0.8, 0.6, 5295.78, 1243.89)">a</text>
  <text class="cls-58" transform="matrix(0.6, -0.8, 0.8, 0.6, 5304.11, 1232.66)">n</text>
  <text class="cls-58" transform="matrix(0.6, -0.8, 0.8, 0.6, 5313.7, 1219.75)">g</text>
  <text class="cls-58" transform="matrix(0.6, -0.8, 0.8, 0.6, 5323.37, 1206.8)">h</text>
  <text class="cls-58" transform="translate(5333 1193.9) rotate(-52.8)">o</text>
  <text class="cls-58" transform="translate(5342.6 1181.3) rotate(-52.6)">f</text>
  <text class="cls-58" transform="matrix(0.61, -0.79, 0.79, 0.61, 5347.5, 1174.9)">e</text>
  <text class="cls-58" transform="translate(5356.3 1163.4) rotate(-52)">r</text>
  <text class="cls-58" transform="matrix(0.62, -0.79, 0.79, 0.62, 5362.05, 1156.14)">-</text>
  <text class="cls-58" transform="translate(5367.5 1149.2) rotate(-51.4)">S</text>
  <text class="cls-58" transform="matrix(0.63, -0.78, 0.78, 0.63, 5376.37, 1138.13)">t</text>
  <text class="cls-58" transform="matrix(0.64, -0.77, 0.77, 0.64, 5382.37, 1130.74)">r</text>
  <text class="cls-58" transform="translate(5387.4 1124.6) rotate(-50.3)">.</text>
  <text class="cls-58" transform="translate(5014.1 1281) rotate(-58.9)">S</text>
  <text class="cls-58" transform="matrix(0.52, -0.85, 0.85, 0.52, 5021.44, 1268.79)">ü</text>
  <text class="cls-58" transform="matrix(0.52, -0.85, 0.85, 0.52, 5029.72, 1255.15)">d</text>
  <text class="cls-58" transform="matrix(0.52, -0.85, 0.85, 0.52, 5038.23, 1241.22)">l</text>
  <text class="cls-58" transform="matrix(0.52, -0.85, 0.85, 0.52, 5041.8, 1235.41)">i</text>
  <text class="cls-58" transform="matrix(0.53, -0.85, 0.85, 0.53, 5045.35, 1229.64)">c</text>
  <text class="cls-58" transform="matrix(0.53, -0.85, 0.85, 0.53, 5052.17, 1218.61)">h</text>
  <text class="cls-58" transform="matrix(0.53, -0.85, 0.85, 0.53, 5060.66, 1204.96)">e</text>
  <text class="cls-58" transform="translate(5068.4 1192.7) rotate(-57.8)"> </text>
  <text class="cls-58" transform="matrix(0.53, -0.84, 0.84, 0.53, 5071.61, 1187.48)">M</text>
  <text class="cls-58" transform="translate(5084.1 1167.8) rotate(-57.4)">ü</text>
  <text class="cls-58" transform="translate(5092.7 1154.3) rotate(-57.2)">n</text>
  <text class="cls-58" transform="matrix(0.54, -0.84, 0.84, 0.54, 5101.39, 1140.8)">c</text>
  <text class="cls-58" transform="translate(5108.4 1129.9) rotate(-56.9)">h</text>
  <text class="cls-58" transform="translate(5117.2 1116.5) rotate(-56.7)">n</text>
  <text class="cls-58" transform="matrix(0.55, -0.83, 0.83, 0.55, 5126.03, 1103.05)">e</text>
  <text class="cls-58" transform="translate(5134 1091) rotate(-56.3)">r</text>
  <text class="cls-58" transform="translate(5139.3 1083.1) rotate(-56.2)"> </text>
  <text class="cls-58" transform="translate(5142.7 1078) rotate(-56.1)">S</text>
  <text class="cls-58" transform="translate(5150.6 1066.2) rotate(-55.9)">t</text>
  <text class="cls-58" transform="matrix(0.56, -0.83, 0.83, 0.56, 5155.98, 1058.3)">r</text>
  <text class="cls-58" transform="translate(5160.4 1051.7) rotate(-55.7)">.</text>
  <text class="cls-42" transform="translate(1127.4 3989.1) rotate(-48.6) scale(0.91 1)">I</text>
  <text class="cls-42" transform="translate(1166.5 3944.3) rotate(-46.8) scale(0.91 1)">s</text>
  <text class="cls-42" transform="translate(1234.3 3871.8) rotate(-44.6) scale(0.91 1)">a</text>
  <text class="cls-42" transform="matrix(0.67, -0.62, 0.68, 0.73, 1321.15, 3786.67)">r</text>
</svg>
